<svg width="40" height="40" viewBox="0 0 40 40" fill="none" xmlns="http://www.w3.org/2000/svg">
<path d="M20 3.49691e-06C8.97165 1.56865e-06 -1.56865e-06 8.97164 -3.49691e-06 20C-5.42517e-06 31.0284 8.97164 40 20 40C31.0284 40 40 31.0284 40 20C40 8.97165 31.0284 5.42517e-06 20 3.49691e-06ZM26.1784 21.1784L17.845 29.5116C17.52 29.8366 17.0934 30 16.6666 30C16.24 30 15.8133 29.8366 15.4883 29.5116C14.8366 28.86 14.8366 27.8066 15.4883 27.155L22.6434 20L15.4884 12.845C14.8367 12.1934 14.8367 11.14 15.4884 10.4884C16.14 9.83672 17.1934 9.83672 17.845 10.4884L26.1784 18.8217C26.83 19.4734 26.83 20.5266 26.1784 21.1784Z" fill="#E0E7EC"/>
</svg>
